<svg viewBox="0 0 22 24" fill="none" xmlns="http://www.w3.org/2000/svg">
<style>
  :root {
    --color-N600: #0f1e57;
    --color-brand: #e4002b;
    --color-gray-light: #e6e9f3;
  }
  @media (prefers-color-scheme: dark) {
    :root {
      --color-N600: #e5eaff;
      --color-gray-light: #1a2a5e;
    }
  }
</style>
<path d="M1.31739 17.6342C1.42281 17.8167 1.57145 17.9591 1.7429 18.0557L10.4478 23.0717C10.6177 23.1715 10.8155 23.2285 11.0266 23.2285C11.2377 23.2285 11.4355 23.1712 11.6051 23.0714L20.3103 18.0554C20.4818 17.9588 20.6298 17.8167 20.7355 17.6342C20.8412 17.4517 20.8904 17.2524 20.8885 17.0558V7.02363C20.8902 6.82728 20.8407 6.62741 20.7353 6.44489C20.6296 6.26238 20.4809 6.12027 20.3098 6.02345L11.6046 1.00739C11.435 0.907591 11.2375 0.850098 11.0263 0.850098C10.8155 0.850098 10.6179 0.90732 10.4484 1.00712L1.74345 6.02345C1.57199 6.12027 1.42336 6.26238 1.31766 6.44489C1.21223 6.62741 1.16305 6.82701 1.16468 7.02336L1.16441 17.0558C1.1625 17.2524 1.21196 17.4517 1.31739 17.6342Z" fill="var(--color-gray-light, #e6e9f3)" stroke="var(--color-N600, #0f1e57)" stroke-width="1.5" stroke-miterlimit="10"/>
<path d="M3.74309 12.478V10.7225C3.74309 9.64502 4.59392 8.95996 6.11685 8.95996C7.63976 8.95996 8.4906 9.64502 8.4906 10.7225V12.478C8.4906 13.5556 7.63976 14.2406 6.12399 14.2406C4.60108 14.2406 3.74309 13.5556 3.74309 12.478ZM7.38236 12.3853V10.8153C7.38236 10.2944 6.98912 9.959 6.12399 9.959C5.2517 9.959 4.85132 10.2944 4.85132 10.8153V12.3853C4.85132 12.9062 5.24457 13.2416 6.11685 13.2416C6.98912 13.2416 7.38236 12.9062 7.38236 12.3853Z" fill="var(--color-N600, #0f1e57)"/>
<path d="M13.5216 9.06689V14.1335H12.442L10.3757 11.015V14.1335H9.29605V9.06689H10.3757L12.442 12.1996V9.06689H13.5216Z" fill="var(--color-N600, #0f1e57)"/>
<path d="M15.6361 10.0659V11.172H18.0241V12.1711H15.6361V13.1344H18.3101V14.1335H14.5279V9.06689H18.3101V10.0659H15.6361Z" fill="var(--color-N600, #0f1e57)"/>
<path d="M3.78203 15.6875H18.2712" stroke="var(--color-brand, #e4002b)" stroke-miterlimit="10"/>
</svg>
